<mxfile host="Electron" modified="2023-04-20T08:20:34.625Z" agent="Mozilla/5.0 (Windows NT 10.0; Win64; x64) AppleWebKit/537.36 (KHTML, like Gecko) draw.io/21.1.2 Chrome/106.0.5249.199 Electron/21.4.3 Safari/537.36" etag="_Cyx9XXURS-8ND0dOHZ2" version="21.1.2" type="device">
  <diagram name="第 1 页" id="j1ZJHjKYBKpsinfgQpLE">
    <mxGraphModel dx="1036" dy="623" grid="1" gridSize="10" guides="1" tooltips="1" connect="1" arrows="1" fold="1" page="1" pageScale="1" pageWidth="827" pageHeight="1169" math="0" shadow="0">
      <root>
        <mxCell id="0" />
        <mxCell id="1" parent="0" />
        <mxCell id="EWjPTVZPi8HneaGWH7ba-69" style="edgeStyle=orthogonalEdgeStyle;rounded=0;orthogonalLoop=1;jettySize=auto;html=1;exitX=0;exitY=0.5;exitDx=0;exitDy=0;exitPerimeter=0;endArrow=oval;endFill=1;" edge="1" parent="1" source="EWjPTVZPi8HneaGWH7ba-3">
          <mxGeometry relative="1" as="geometry">
            <mxPoint x="170" y="250" as="targetPoint" />
          </mxGeometry>
        </mxCell>
        <mxCell id="EWjPTVZPi8HneaGWH7ba-76" style="edgeStyle=orthogonalEdgeStyle;rounded=0;orthogonalLoop=1;jettySize=auto;html=1;exitX=1;exitY=0.5;exitDx=0;exitDy=0;exitPerimeter=0;endArrow=none;endFill=0;" edge="1" parent="1" source="EWjPTVZPi8HneaGWH7ba-3">
          <mxGeometry relative="1" as="geometry">
            <mxPoint x="690" y="250" as="targetPoint" />
          </mxGeometry>
        </mxCell>
        <mxCell id="EWjPTVZPi8HneaGWH7ba-3" value="" style="pointerEvents=1;verticalLabelPosition=bottom;shadow=0;dashed=0;align=center;html=1;verticalAlign=top;shape=mxgraph.electrical.resistors.resistor_1;" vertex="1" parent="1">
          <mxGeometry x="390" y="240" width="100" height="20" as="geometry" />
        </mxCell>
        <mxCell id="EWjPTVZPi8HneaGWH7ba-66" style="edgeStyle=orthogonalEdgeStyle;rounded=0;orthogonalLoop=1;jettySize=auto;html=1;exitX=0;exitY=0.5;exitDx=0;exitDy=0;exitPerimeter=0;endArrow=oval;endFill=1;" edge="1" parent="1" source="EWjPTVZPi8HneaGWH7ba-11">
          <mxGeometry relative="1" as="geometry">
            <mxPoint x="90" y="210" as="targetPoint" />
          </mxGeometry>
        </mxCell>
        <mxCell id="EWjPTVZPi8HneaGWH7ba-78" style="edgeStyle=orthogonalEdgeStyle;rounded=0;orthogonalLoop=1;jettySize=auto;html=1;exitX=1;exitY=0.5;exitDx=0;exitDy=0;exitPerimeter=0;endArrow=oval;endFill=1;" edge="1" parent="1" source="EWjPTVZPi8HneaGWH7ba-11">
          <mxGeometry relative="1" as="geometry">
            <mxPoint x="650" y="250" as="targetPoint" />
          </mxGeometry>
        </mxCell>
        <mxCell id="EWjPTVZPi8HneaGWH7ba-11" value="" style="pointerEvents=1;verticalLabelPosition=bottom;shadow=0;dashed=0;align=center;html=1;verticalAlign=top;shape=mxgraph.electrical.resistors.resistor_1;" vertex="1" parent="1">
          <mxGeometry x="390" y="200" width="100" height="20" as="geometry" />
        </mxCell>
        <mxCell id="EWjPTVZPi8HneaGWH7ba-70" style="edgeStyle=orthogonalEdgeStyle;rounded=0;orthogonalLoop=1;jettySize=auto;html=1;exitX=0;exitY=0.5;exitDx=0;exitDy=0;exitPerimeter=0;endArrow=oval;endFill=1;" edge="1" parent="1" source="EWjPTVZPi8HneaGWH7ba-12">
          <mxGeometry relative="1" as="geometry">
            <mxPoint x="250" y="290" as="targetPoint" />
          </mxGeometry>
        </mxCell>
        <mxCell id="EWjPTVZPi8HneaGWH7ba-79" style="edgeStyle=orthogonalEdgeStyle;rounded=0;orthogonalLoop=1;jettySize=auto;html=1;exitX=1;exitY=0.5;exitDx=0;exitDy=0;exitPerimeter=0;endArrow=oval;endFill=1;" edge="1" parent="1" source="EWjPTVZPi8HneaGWH7ba-12">
          <mxGeometry relative="1" as="geometry">
            <mxPoint x="650" y="250" as="targetPoint" />
          </mxGeometry>
        </mxCell>
        <mxCell id="EWjPTVZPi8HneaGWH7ba-12" value="" style="pointerEvents=1;verticalLabelPosition=bottom;shadow=0;dashed=0;align=center;html=1;verticalAlign=top;shape=mxgraph.electrical.resistors.resistor_1;" vertex="1" parent="1">
          <mxGeometry x="390" y="280" width="100" height="20" as="geometry" />
        </mxCell>
        <mxCell id="EWjPTVZPi8HneaGWH7ba-88" style="edgeStyle=orthogonalEdgeStyle;rounded=0;orthogonalLoop=1;jettySize=auto;html=1;exitX=0;exitY=0.835;exitDx=0;exitDy=0;exitPerimeter=0;endArrow=none;endFill=0;" edge="1" parent="1" source="EWjPTVZPi8HneaGWH7ba-72">
          <mxGeometry relative="1" as="geometry">
            <mxPoint x="430" y="495.16666666666674" as="targetPoint" />
          </mxGeometry>
        </mxCell>
        <mxCell id="EWjPTVZPi8HneaGWH7ba-117" style="edgeStyle=orthogonalEdgeStyle;rounded=0;orthogonalLoop=1;jettySize=auto;html=1;exitX=1;exitY=0.5;exitDx=0;exitDy=0;exitPerimeter=0;endArrow=none;endFill=0;" edge="1" parent="1" source="EWjPTVZPi8HneaGWH7ba-72">
          <mxGeometry relative="1" as="geometry">
            <mxPoint x="780" y="465" as="targetPoint" />
          </mxGeometry>
        </mxCell>
        <mxCell id="EWjPTVZPi8HneaGWH7ba-72" value="" style="verticalLabelPosition=bottom;shadow=0;dashed=0;align=center;html=1;verticalAlign=top;shape=mxgraph.electrical.abstract.operational_amp_1;" vertex="1" parent="1">
          <mxGeometry x="630" y="420" width="98" height="90" as="geometry" />
        </mxCell>
        <mxCell id="EWjPTVZPi8HneaGWH7ba-83" value="" style="edgeStyle=orthogonalEdgeStyle;rounded=0;orthogonalLoop=1;jettySize=auto;html=1;entryX=0;entryY=0.165;entryDx=0;entryDy=0;entryPerimeter=0;endArrow=none;endFill=0;" edge="1" parent="1" source="EWjPTVZPi8HneaGWH7ba-74" target="EWjPTVZPi8HneaGWH7ba-72">
          <mxGeometry relative="1" as="geometry" />
        </mxCell>
        <mxCell id="EWjPTVZPi8HneaGWH7ba-74" value="三路选择器" style="rounded=0;whiteSpace=wrap;html=1;fillColor=none;" vertex="1" parent="1">
          <mxGeometry x="440" y="330" width="70" height="130" as="geometry" />
        </mxCell>
        <mxCell id="EWjPTVZPi8HneaGWH7ba-80" value="" style="endArrow=none;html=1;rounded=0;" edge="1" parent="1">
          <mxGeometry width="50" height="50" relative="1" as="geometry">
            <mxPoint x="440" y="360" as="sourcePoint" />
            <mxPoint x="360" y="210" as="targetPoint" />
            <Array as="points">
              <mxPoint x="360" y="360" />
            </Array>
          </mxGeometry>
        </mxCell>
        <mxCell id="EWjPTVZPi8HneaGWH7ba-81" value="" style="endArrow=none;html=1;rounded=0;exitX=0.01;exitY=0.543;exitDx=0;exitDy=0;exitPerimeter=0;" edge="1" parent="1" source="EWjPTVZPi8HneaGWH7ba-74">
          <mxGeometry width="50" height="50" relative="1" as="geometry">
            <mxPoint x="430" y="400" as="sourcePoint" />
            <mxPoint x="330" y="250" as="targetPoint" />
            <Array as="points">
              <mxPoint x="330" y="400" />
            </Array>
          </mxGeometry>
        </mxCell>
        <mxCell id="EWjPTVZPi8HneaGWH7ba-82" value="" style="endArrow=none;html=1;rounded=0;exitX=0;exitY=0.846;exitDx=0;exitDy=0;exitPerimeter=0;" edge="1" parent="1" source="EWjPTVZPi8HneaGWH7ba-74">
          <mxGeometry width="50" height="50" relative="1" as="geometry">
            <mxPoint x="380" y="440" as="sourcePoint" />
            <mxPoint x="300" y="290" as="targetPoint" />
            <Array as="points">
              <mxPoint x="300" y="440" />
            </Array>
          </mxGeometry>
        </mxCell>
        <mxCell id="EWjPTVZPi8HneaGWH7ba-85" value="" style="shape=image;verticalLabelPosition=bottom;labelBackgroundColor=default;verticalAlign=top;aspect=fixed;imageAspect=0;image=data:image/png,iVBORw0KGgoAAAANSUhEUgAAAD8AAAA5CAYAAACBBvPCAAADqElEQVRoge2av0vrUBTHv+/xRhcHCS5ux8nN9RZ0EkEIKR1cJYqDm9TFPU4dszplFaWDBAdpBweH6yZImq1DpTh06B9w3vBIaJsfzW3T9pXkA8Jtck9yP+ace29DfzEzo6D8XvUAVkkpX1RK+aJSyheVUr6olPKTdDqdqYFZ+sTx/f09U1xWOp0OqtUqKpXK1DH+mTzQbrdxeHgIIkoN9H0fUkrs7++PHa9UKuj3+4lxe3t7eHx8TL32PJycnMD3fQDAw8MDbm9vE/tG5A8ODmBZFgBgMBig0WiE54QQOD4+BgDs7OxExAHg8vIS3W4Xruvi7e0NAEBE0HUdm5ubODs7m0MtncmsqtVq6QGcgpSSAYR/Usq07mMMh0MmIiYiHg6HmePmYXS8RDS1f+qE9/7+HraJKPZJJ7GxsQEA0HU9bC+al5eXsK3r+tT+qfKvr69hW9M0pYG02234vo/T01OluHkYDAZh++LiYmr/VPnPz8+wHdR6Vp6fn5WzZV6CTCUi7O7uTu2fKP/x8RHOmgBwdHSkPBDVbJmXYJXJkvJAivxo/czyBPv9vnK25AER4fr6OlPfRHnXdcP2rPWumi3zEGSqpmnY3t7OFJMoP7pRWYd6//r6AgClCTZWfh3rvdvtgohQrVYzx8TKr2O9u66rlPJAgvy61XuA6p4iVn7d6h34J351daUWlLY/huJ+nplZCMFCCKWYVRF58utY77MS+Uq7inq/u7vL1K9Wq2XatmYlIr/ser+5uUGj0QARQdO0yD2llHh6egIR5f8uYLQGPM+bq96JiA3DUI4RQnCv14uck1KG7wRUx5KFMXnVlwGjtFotBsCtVitzjOd5iS87AnEA3Gw2lcaSldzkDcNQnuUty+J6vR45HrwFAsCO4yhdU4XIUhfcVEXetm3lp87MbJpmbLoLIRYuzhwjH9wYAHueN/UCQXrGPcFZCO5vmmYu10sjIu84Tig/bQDNZpOJKLeBGoaxNHHmGPnRQaSlXr1ez3WgpmkuVZw5QZ55/B9gGAZblsWWZbFhGOHyk9csHIjHTZhZSm9WUt/bO44zJhusybZt5zYAy7ISxXu9nvKqo0Kq/KIJ5pekJdK27YWWwcrkA3EiSkxtIYTy8qnCSuSD3WDattU0zYWmPPMK5NP261LKcJ4BkNveIYlfzMv9+en5+Tk8zwMAbG1tjZ37+fkZ+3x/f5/rV9hJli7/P1H+LKWolPJFpZQvKqV8USnli0opX1T+ArdbdYKH0I0/AAAAAElFTkSuQmCC;" vertex="1" parent="1">
          <mxGeometry x="700" y="230" width="33.16" height="30" as="geometry" />
        </mxCell>
        <mxCell id="EWjPTVZPi8HneaGWH7ba-87" value="" style="shape=image;verticalLabelPosition=bottom;labelBackgroundColor=default;verticalAlign=top;aspect=fixed;imageAspect=0;image=data:image/png,iVBORw0KGgoAAAANSUhEUgAAAD8AAAA5CAYAAACBBvPCAAADqElEQVRoge2av0vrUBTHv+/xRhcHCS5ux8nN9RZ0EkEIKR1cJYqDm9TFPU4dszplFaWDBAdpBweH6yZImq1DpTh06B9w3vBIaJsfzW3T9pXkA8Jtck9yP+ace29DfzEzo6D8XvUAVkkpX1RK+aJSyheVUr6olPKTdDqdqYFZ+sTx/f09U1xWOp0OqtUqKpXK1DH+mTzQbrdxeHgIIkoN9H0fUkrs7++PHa9UKuj3+4lxe3t7eHx8TL32PJycnMD3fQDAw8MDbm9vE/tG5A8ODmBZFgBgMBig0WiE54QQOD4+BgDs7OxExAHg8vIS3W4Xruvi7e0NAEBE0HUdm5ubODs7m0MtncmsqtVq6QGcgpSSAYR/Usq07mMMh0MmIiYiHg6HmePmYXS8RDS1f+qE9/7+HraJKPZJJ7GxsQEA0HU9bC+al5eXsK3r+tT+qfKvr69hW9M0pYG02234vo/T01OluHkYDAZh++LiYmr/VPnPz8+wHdR6Vp6fn5WzZV6CTCUi7O7uTu2fKP/x8RHOmgBwdHSkPBDVbJmXYJXJkvJAivxo/czyBPv9vnK25AER4fr6OlPfRHnXdcP2rPWumi3zEGSqpmnY3t7OFJMoP7pRWYd6//r6AgClCTZWfh3rvdvtgohQrVYzx8TKr2O9u66rlPJAgvy61XuA6p4iVn7d6h34J351daUWlLY/huJ+nplZCMFCCKWYVRF58utY77MS+Uq7inq/u7vL1K9Wq2XatmYlIr/ser+5uUGj0QARQdO0yD2llHh6egIR5f8uYLQGPM+bq96JiA3DUI4RQnCv14uck1KG7wRUx5KFMXnVlwGjtFotBsCtVitzjOd5iS87AnEA3Gw2lcaSldzkDcNQnuUty+J6vR45HrwFAsCO4yhdU4XIUhfcVEXetm3lp87MbJpmbLoLIRYuzhwjH9wYAHueN/UCQXrGPcFZCO5vmmYu10sjIu84Tig/bQDNZpOJKLeBGoaxNHHmGPnRQaSlXr1ez3WgpmkuVZw5QZ55/B9gGAZblsWWZbFhGOHyk9csHIjHTZhZSm9WUt/bO44zJhusybZt5zYAy7ISxXu9nvKqo0Kq/KIJ5pekJdK27YWWwcrkA3EiSkxtIYTy8qnCSuSD3WDattU0zYWmPPMK5NP261LKcJ4BkNveIYlfzMv9+en5+Tk8zwMAbG1tjZ37+fkZ+3x/f5/rV9hJli7/P1H+LKWolPJFpZQvKqV8USnli0opX1T+ArdbdYKH0I0/AAAAAElFTkSuQmCC;" vertex="1" parent="1">
          <mxGeometry x="414" y="520" width="33.16" height="30" as="geometry" />
        </mxCell>
        <mxCell id="EWjPTVZPi8HneaGWH7ba-2" value="" style="pointerEvents=1;verticalLabelPosition=bottom;shadow=0;dashed=0;align=center;html=1;verticalAlign=top;shape=mxgraph.electrical.resistors.resistor_1;rotation=-90;direction=west;container=0;" vertex="1" parent="1">
          <mxGeometry x="40" y="110" width="100" height="20" as="geometry" />
        </mxCell>
        <mxCell id="EWjPTVZPi8HneaGWH7ba-18" style="edgeStyle=orthogonalEdgeStyle;rounded=0;orthogonalLoop=1;jettySize=auto;html=1;exitX=1;exitY=0.5;exitDx=0;exitDy=0;exitPerimeter=0;entryX=0;entryY=0.5;entryDx=0;entryDy=0;entryPerimeter=0;endArrow=none;endFill=0;" edge="1" parent="1" source="EWjPTVZPi8HneaGWH7ba-2" target="EWjPTVZPi8HneaGWH7ba-17">
          <mxGeometry relative="1" as="geometry" />
        </mxCell>
        <mxCell id="EWjPTVZPi8HneaGWH7ba-38" style="edgeStyle=orthogonalEdgeStyle;rounded=0;orthogonalLoop=1;jettySize=auto;html=1;exitX=1;exitY=0.5;exitDx=0;exitDy=0;exitPerimeter=0;endArrow=none;endFill=0;" edge="1" parent="1" source="EWjPTVZPi8HneaGWH7ba-17">
          <mxGeometry relative="1" as="geometry">
            <mxPoint x="90" y="450" as="targetPoint" />
          </mxGeometry>
        </mxCell>
        <mxCell id="EWjPTVZPi8HneaGWH7ba-17" value="" style="pointerEvents=1;verticalLabelPosition=bottom;shadow=0;dashed=0;align=center;html=1;verticalAlign=top;shape=mxgraph.electrical.resistors.resistor_1;rotation=-90;direction=west;container=0;" vertex="1" parent="1">
          <mxGeometry x="40" y="360" width="100" height="20" as="geometry" />
        </mxCell>
        <mxCell id="EWjPTVZPi8HneaGWH7ba-35" style="edgeStyle=orthogonalEdgeStyle;rounded=0;orthogonalLoop=1;jettySize=auto;html=1;endArrow=none;endFill=0;" edge="1" parent="1" source="EWjPTVZPi8HneaGWH7ba-21">
          <mxGeometry relative="1" as="geometry">
            <mxPoint x="50" y="310" as="targetPoint" />
          </mxGeometry>
        </mxCell>
        <mxCell id="EWjPTVZPi8HneaGWH7ba-37" style="edgeStyle=orthogonalEdgeStyle;rounded=0;orthogonalLoop=1;jettySize=auto;html=1;exitX=0;exitY=0.5;exitDx=0;exitDy=0;exitPerimeter=0;endArrow=none;endFill=0;" edge="1" parent="1" source="EWjPTVZPi8HneaGWH7ba-21">
          <mxGeometry relative="1" as="geometry">
            <mxPoint x="90" y="430" as="targetPoint" />
            <Array as="points">
              <mxPoint x="50" y="430" />
            </Array>
          </mxGeometry>
        </mxCell>
        <mxCell id="EWjPTVZPi8HneaGWH7ba-21" value="" style="pointerEvents=1;verticalLabelPosition=bottom;shadow=0;dashed=0;align=center;html=1;verticalAlign=top;shape=mxgraph.electrical.capacitors.capacitor_1;rotation=-90;container=0;" vertex="1" parent="1">
          <mxGeometry x="30" y="360" width="40" height="20" as="geometry" />
        </mxCell>
        <mxCell id="EWjPTVZPi8HneaGWH7ba-33" value="" style="html=1;rounded=0;endArrow=none;endFill=0;" edge="1" parent="1">
          <mxGeometry width="100" relative="1" as="geometry">
            <mxPoint x="50" y="310" as="sourcePoint" />
            <mxPoint x="90" y="310" as="targetPoint" />
          </mxGeometry>
        </mxCell>
        <mxCell id="EWjPTVZPi8HneaGWH7ba-49" value="" style="pointerEvents=1;verticalLabelPosition=bottom;shadow=0;dashed=0;align=center;html=1;verticalAlign=top;shape=mxgraph.electrical.resistors.resistor_1;rotation=-90;direction=west;container=0;" vertex="1" parent="1">
          <mxGeometry x="120" y="110" width="100" height="20" as="geometry" />
        </mxCell>
        <mxCell id="EWjPTVZPi8HneaGWH7ba-50" style="edgeStyle=orthogonalEdgeStyle;rounded=0;orthogonalLoop=1;jettySize=auto;html=1;exitX=1;exitY=0.5;exitDx=0;exitDy=0;exitPerimeter=0;endArrow=none;endFill=0;" edge="1" parent="1" source="EWjPTVZPi8HneaGWH7ba-51">
          <mxGeometry relative="1" as="geometry">
            <mxPoint x="170" y="450" as="targetPoint" />
          </mxGeometry>
        </mxCell>
        <mxCell id="EWjPTVZPi8HneaGWH7ba-51" value="" style="pointerEvents=1;verticalLabelPosition=bottom;shadow=0;dashed=0;align=center;html=1;verticalAlign=top;shape=mxgraph.electrical.resistors.resistor_1;rotation=-90;direction=west;container=0;" vertex="1" parent="1">
          <mxGeometry x="120" y="360" width="100" height="20" as="geometry" />
        </mxCell>
        <mxCell id="EWjPTVZPi8HneaGWH7ba-52" style="edgeStyle=orthogonalEdgeStyle;rounded=0;orthogonalLoop=1;jettySize=auto;html=1;exitX=1;exitY=0.5;exitDx=0;exitDy=0;exitPerimeter=0;entryX=0;entryY=0.5;entryDx=0;entryDy=0;entryPerimeter=0;endArrow=none;endFill=0;" edge="1" parent="1" source="EWjPTVZPi8HneaGWH7ba-49" target="EWjPTVZPi8HneaGWH7ba-51">
          <mxGeometry relative="1" as="geometry" />
        </mxCell>
        <mxCell id="EWjPTVZPi8HneaGWH7ba-53" style="edgeStyle=orthogonalEdgeStyle;rounded=0;orthogonalLoop=1;jettySize=auto;html=1;endArrow=none;endFill=0;" edge="1" parent="1" source="EWjPTVZPi8HneaGWH7ba-55">
          <mxGeometry relative="1" as="geometry">
            <mxPoint x="130" y="310" as="targetPoint" />
          </mxGeometry>
        </mxCell>
        <mxCell id="EWjPTVZPi8HneaGWH7ba-54" style="edgeStyle=orthogonalEdgeStyle;rounded=0;orthogonalLoop=1;jettySize=auto;html=1;exitX=0;exitY=0.5;exitDx=0;exitDy=0;exitPerimeter=0;endArrow=none;endFill=0;" edge="1" parent="1" source="EWjPTVZPi8HneaGWH7ba-55">
          <mxGeometry relative="1" as="geometry">
            <mxPoint x="170" y="430" as="targetPoint" />
            <Array as="points">
              <mxPoint x="130" y="430" />
            </Array>
          </mxGeometry>
        </mxCell>
        <mxCell id="EWjPTVZPi8HneaGWH7ba-55" value="" style="pointerEvents=1;verticalLabelPosition=bottom;shadow=0;dashed=0;align=center;html=1;verticalAlign=top;shape=mxgraph.electrical.capacitors.capacitor_1;rotation=-90;container=0;" vertex="1" parent="1">
          <mxGeometry x="110" y="360" width="40" height="20" as="geometry" />
        </mxCell>
        <mxCell id="EWjPTVZPi8HneaGWH7ba-56" value="" style="html=1;rounded=0;endArrow=none;endFill=0;" edge="1" parent="1">
          <mxGeometry width="100" relative="1" as="geometry">
            <mxPoint x="130" y="310" as="sourcePoint" />
            <mxPoint x="170" y="310" as="targetPoint" />
          </mxGeometry>
        </mxCell>
        <mxCell id="EWjPTVZPi8HneaGWH7ba-58" value="" style="pointerEvents=1;verticalLabelPosition=bottom;shadow=0;dashed=0;align=center;html=1;verticalAlign=top;shape=mxgraph.electrical.resistors.resistor_1;rotation=-90;direction=west;container=0;" vertex="1" parent="1">
          <mxGeometry x="200" y="110" width="100" height="20" as="geometry" />
        </mxCell>
        <mxCell id="EWjPTVZPi8HneaGWH7ba-59" style="edgeStyle=orthogonalEdgeStyle;rounded=0;orthogonalLoop=1;jettySize=auto;html=1;exitX=1;exitY=0.5;exitDx=0;exitDy=0;exitPerimeter=0;endArrow=none;endFill=0;" edge="1" parent="1" source="EWjPTVZPi8HneaGWH7ba-60">
          <mxGeometry relative="1" as="geometry">
            <mxPoint x="250" y="450" as="targetPoint" />
          </mxGeometry>
        </mxCell>
        <mxCell id="EWjPTVZPi8HneaGWH7ba-60" value="" style="pointerEvents=1;verticalLabelPosition=bottom;shadow=0;dashed=0;align=center;html=1;verticalAlign=top;shape=mxgraph.electrical.resistors.resistor_1;rotation=-90;direction=west;container=0;" vertex="1" parent="1">
          <mxGeometry x="200" y="360" width="100" height="20" as="geometry" />
        </mxCell>
        <mxCell id="EWjPTVZPi8HneaGWH7ba-61" style="edgeStyle=orthogonalEdgeStyle;rounded=0;orthogonalLoop=1;jettySize=auto;html=1;exitX=1;exitY=0.5;exitDx=0;exitDy=0;exitPerimeter=0;entryX=0;entryY=0.5;entryDx=0;entryDy=0;entryPerimeter=0;endArrow=none;endFill=0;" edge="1" parent="1" source="EWjPTVZPi8HneaGWH7ba-58" target="EWjPTVZPi8HneaGWH7ba-60">
          <mxGeometry relative="1" as="geometry" />
        </mxCell>
        <mxCell id="EWjPTVZPi8HneaGWH7ba-62" style="edgeStyle=orthogonalEdgeStyle;rounded=0;orthogonalLoop=1;jettySize=auto;html=1;endArrow=none;endFill=0;" edge="1" parent="1" source="EWjPTVZPi8HneaGWH7ba-64">
          <mxGeometry relative="1" as="geometry">
            <mxPoint x="210" y="310" as="targetPoint" />
          </mxGeometry>
        </mxCell>
        <mxCell id="EWjPTVZPi8HneaGWH7ba-63" style="edgeStyle=orthogonalEdgeStyle;rounded=0;orthogonalLoop=1;jettySize=auto;html=1;exitX=0;exitY=0.5;exitDx=0;exitDy=0;exitPerimeter=0;endArrow=none;endFill=0;" edge="1" parent="1" source="EWjPTVZPi8HneaGWH7ba-64">
          <mxGeometry relative="1" as="geometry">
            <mxPoint x="250" y="430" as="targetPoint" />
            <Array as="points">
              <mxPoint x="210" y="430" />
            </Array>
          </mxGeometry>
        </mxCell>
        <mxCell id="EWjPTVZPi8HneaGWH7ba-64" value="" style="pointerEvents=1;verticalLabelPosition=bottom;shadow=0;dashed=0;align=center;html=1;verticalAlign=top;shape=mxgraph.electrical.capacitors.capacitor_1;rotation=-90;container=0;" vertex="1" parent="1">
          <mxGeometry x="190" y="360" width="40" height="20" as="geometry" />
        </mxCell>
        <mxCell id="EWjPTVZPi8HneaGWH7ba-65" value="" style="html=1;rounded=0;endArrow=none;endFill=0;" edge="1" parent="1">
          <mxGeometry width="100" relative="1" as="geometry">
            <mxPoint x="210" y="310" as="sourcePoint" />
            <mxPoint x="250" y="310" as="targetPoint" />
          </mxGeometry>
        </mxCell>
        <mxCell id="EWjPTVZPi8HneaGWH7ba-92" value="R1" style="text;html=1;align=center;verticalAlign=middle;resizable=0;points=[];autosize=1;strokeColor=none;fillColor=none;rotation=-90;" vertex="1" parent="1">
          <mxGeometry x="70" y="110" width="40" height="30" as="geometry" />
        </mxCell>
        <mxCell id="EWjPTVZPi8HneaGWH7ba-93" value="R1" style="text;html=1;align=center;verticalAlign=middle;resizable=0;points=[];autosize=1;strokeColor=none;fillColor=none;rotation=-90;" vertex="1" parent="1">
          <mxGeometry x="230" y="110" width="40" height="30" as="geometry" />
        </mxCell>
        <mxCell id="EWjPTVZPi8HneaGWH7ba-94" value="R1" style="text;html=1;align=center;verticalAlign=middle;resizable=0;points=[];autosize=1;strokeColor=none;fillColor=none;rotation=-90;" vertex="1" parent="1">
          <mxGeometry x="150" y="105" width="40" height="30" as="geometry" />
        </mxCell>
        <mxCell id="EWjPTVZPi8HneaGWH7ba-96" value="R2" style="text;html=1;align=center;verticalAlign=middle;resizable=0;points=[];autosize=1;strokeColor=none;fillColor=none;rotation=-90;" vertex="1" parent="1">
          <mxGeometry x="230" y="355" width="40" height="30" as="geometry" />
        </mxCell>
        <mxCell id="EWjPTVZPi8HneaGWH7ba-97" value="R2" style="text;html=1;align=center;verticalAlign=middle;resizable=0;points=[];autosize=1;strokeColor=none;fillColor=none;rotation=-90;" vertex="1" parent="1">
          <mxGeometry x="70" y="360" width="40" height="30" as="geometry" />
        </mxCell>
        <mxCell id="EWjPTVZPi8HneaGWH7ba-98" value="R2" style="text;html=1;align=center;verticalAlign=middle;resizable=0;points=[];autosize=1;strokeColor=none;fillColor=none;rotation=-90;" vertex="1" parent="1">
          <mxGeometry x="150" y="360" width="40" height="30" as="geometry" />
        </mxCell>
        <mxCell id="EWjPTVZPi8HneaGWH7ba-99" value="" style="pointerEvents=1;verticalLabelPosition=bottom;shadow=0;dashed=0;align=center;html=1;verticalAlign=top;shape=mxgraph.electrical.signal_sources.protective_earth;" vertex="1" parent="1">
          <mxGeometry x="77.5" y="450" width="25" height="20" as="geometry" />
        </mxCell>
        <mxCell id="EWjPTVZPi8HneaGWH7ba-101" value="" style="pointerEvents=1;verticalLabelPosition=bottom;shadow=0;dashed=0;align=center;html=1;verticalAlign=top;shape=mxgraph.electrical.signal_sources.protective_earth;" vertex="1" parent="1">
          <mxGeometry x="237.5" y="450" width="25" height="20" as="geometry" />
        </mxCell>
        <mxCell id="EWjPTVZPi8HneaGWH7ba-102" value="" style="pointerEvents=1;verticalLabelPosition=bottom;shadow=0;dashed=0;align=center;html=1;verticalAlign=top;shape=mxgraph.electrical.signal_sources.protective_earth;" vertex="1" parent="1">
          <mxGeometry x="157.5" y="450" width="25" height="20" as="geometry" />
        </mxCell>
        <mxCell id="EWjPTVZPi8HneaGWH7ba-103" value="U&lt;sub&gt;A&lt;/sub&gt;" style="text;html=1;align=center;verticalAlign=middle;resizable=0;points=[];autosize=1;strokeColor=none;fillColor=none;rotation=0;" vertex="1" parent="1">
          <mxGeometry x="40" y="60" width="40" height="30" as="geometry" />
        </mxCell>
        <mxCell id="EWjPTVZPi8HneaGWH7ba-104" value="U&lt;span style=&quot;font-size: 10px;&quot;&gt;B&lt;/span&gt;" style="text;html=1;align=center;verticalAlign=middle;resizable=0;points=[];autosize=1;strokeColor=none;fillColor=none;rotation=0;" vertex="1" parent="1">
          <mxGeometry x="120" y="60" width="40" height="30" as="geometry" />
        </mxCell>
        <mxCell id="EWjPTVZPi8HneaGWH7ba-105" value="U&lt;span style=&quot;font-size: 10px;&quot;&gt;C&lt;/span&gt;" style="text;html=1;align=center;verticalAlign=middle;resizable=0;points=[];autosize=1;strokeColor=none;fillColor=none;rotation=0;" vertex="1" parent="1">
          <mxGeometry x="200" y="60" width="40" height="30" as="geometry" />
        </mxCell>
        <mxCell id="EWjPTVZPi8HneaGWH7ba-106" value="U&lt;sup&gt;&#39;&lt;/sup&gt;&lt;sub&gt;A&lt;/sub&gt;" style="text;html=1;align=center;verticalAlign=middle;resizable=0;points=[];autosize=1;strokeColor=none;fillColor=none;rotation=0;" vertex="1" parent="1">
          <mxGeometry x="40" y="170" width="40" height="30" as="geometry" />
        </mxCell>
        <mxCell id="EWjPTVZPi8HneaGWH7ba-107" value="U&lt;sup&gt;&#39;&lt;/sup&gt;&lt;sub&gt;B&lt;/sub&gt;" style="text;html=1;align=center;verticalAlign=middle;resizable=0;points=[];autosize=1;strokeColor=none;fillColor=none;rotation=0;" vertex="1" parent="1">
          <mxGeometry x="120" y="220" width="40" height="30" as="geometry" />
        </mxCell>
        <mxCell id="EWjPTVZPi8HneaGWH7ba-108" value="U&lt;sup&gt;&#39;&lt;/sup&gt;&lt;sub&gt;C&lt;/sub&gt;" style="text;html=1;align=center;verticalAlign=middle;resizable=0;points=[];autosize=1;strokeColor=none;fillColor=none;rotation=0;" vertex="1" parent="1">
          <mxGeometry x="200" y="260" width="40" height="30" as="geometry" />
        </mxCell>
        <mxCell id="EWjPTVZPi8HneaGWH7ba-109" value="C" style="text;html=1;align=center;verticalAlign=middle;resizable=0;points=[];autosize=1;strokeColor=none;fillColor=none;" vertex="1" parent="1">
          <mxGeometry x="20" y="345" width="30" height="30" as="geometry" />
        </mxCell>
        <mxCell id="EWjPTVZPi8HneaGWH7ba-112" value="C" style="text;html=1;align=center;verticalAlign=middle;resizable=0;points=[];autosize=1;strokeColor=none;fillColor=none;" vertex="1" parent="1">
          <mxGeometry x="180" y="345" width="30" height="30" as="geometry" />
        </mxCell>
        <mxCell id="EWjPTVZPi8HneaGWH7ba-114" value="" style="edgeStyle=orthogonalEdgeStyle;rounded=0;orthogonalLoop=1;jettySize=auto;html=1;" edge="1" parent="1" source="EWjPTVZPi8HneaGWH7ba-113" target="EWjPTVZPi8HneaGWH7ba-99">
          <mxGeometry relative="1" as="geometry" />
        </mxCell>
        <mxCell id="EWjPTVZPi8HneaGWH7ba-113" value="C" style="text;html=1;align=center;verticalAlign=middle;resizable=0;points=[];autosize=1;strokeColor=none;fillColor=none;" vertex="1" parent="1">
          <mxGeometry x="100" y="345" width="30" height="30" as="geometry" />
        </mxCell>
        <mxCell id="EWjPTVZPi8HneaGWH7ba-116" value="比较器" style="text;html=1;align=center;verticalAlign=middle;resizable=0;points=[];autosize=1;strokeColor=none;fillColor=none;" vertex="1" parent="1">
          <mxGeometry x="620" y="510" width="60" height="30" as="geometry" />
        </mxCell>
      </root>
    </mxGraphModel>
  </diagram>
</mxfile>
